<mxfile host="65bd71144e">
    <diagram id="HP4b4mP-0-xfybPTMIca" name="Purpose">
        <mxGraphModel dx="1373" dy="958" grid="1" gridSize="10" guides="1" tooltips="1" connect="1" arrows="1" fold="1" page="1" pageScale="1" pageWidth="827" pageHeight="1169" math="0" shadow="0">
            <root>
                <mxCell id="0"/>
                <mxCell id="1" parent="0"/>
                <mxCell id="2" value="" style="shape=actor;whiteSpace=wrap;html=1;" vertex="1" parent="1">
                    <mxGeometry x="358" y="600" width="112" height="90" as="geometry"/>
                </mxCell>
                <mxCell id="3" value="units" style="ellipse;shape=cloud;whiteSpace=wrap;html=1;" vertex="1" parent="1">
                    <mxGeometry x="230" y="490" width="120" height="80" as="geometry"/>
                </mxCell>
                <mxCell id="4" value="interventions" style="ellipse;shape=cloud;whiteSpace=wrap;html=1;" vertex="1" parent="1">
                    <mxGeometry x="370" y="480" width="120" height="80" as="geometry"/>
                </mxCell>
                <mxCell id="5" value="doctors" style="ellipse;shape=cloud;whiteSpace=wrap;html=1;" vertex="1" parent="1">
                    <mxGeometry x="238" y="585" width="120" height="80" as="geometry"/>
                </mxCell>
                <mxCell id="8" value="patients" style="ellipse;shape=cloud;whiteSpace=wrap;html=1;" vertex="1" parent="1">
                    <mxGeometry x="510" y="560" width="120" height="80" as="geometry"/>
                </mxCell>
            </root>
        </mxGraphModel>
    </diagram>
    <diagram id="Bbjq4fT_6YLyrqSmvp6h" name="ER">
        <mxGraphModel dx="2474" dy="2319" grid="1" gridSize="10" guides="1" tooltips="1" connect="1" arrows="1" fold="1" page="1" pageScale="1" pageWidth="827" pageHeight="1169" math="0" shadow="0">
            <root>
                <mxCell id="KFeVyLWCdxqKHFblnzPD-0"/>
                <mxCell id="KFeVyLWCdxqKHFblnzPD-1" parent="KFeVyLWCdxqKHFblnzPD-0"/>
                <mxCell id="KFeVyLWCdxqKHFblnzPD-5" value="Patients" style="rounded=0;whiteSpace=wrap;html=1;" vertex="1" parent="KFeVyLWCdxqKHFblnzPD-1">
                    <mxGeometry x="430" y="30" width="120" height="60" as="geometry"/>
                </mxCell>
                <mxCell id="KrVRhkm09FR2dddCdwVr-11" style="edgeStyle=none;html=1;entryX=0.5;entryY=0;entryDx=0;entryDy=0;" edge="1" parent="KFeVyLWCdxqKHFblnzPD-1" source="KFeVyLWCdxqKHFblnzPD-6" target="KFeVyLWCdxqKHFblnzPD-7">
                    <mxGeometry relative="1" as="geometry"/>
                </mxCell>
                <mxCell id="KrVRhkm09FR2dddCdwVr-12" style="edgeStyle=none;html=1;entryX=0.5;entryY=1;entryDx=0;entryDy=0;" edge="1" parent="KFeVyLWCdxqKHFblnzPD-1" source="KFeVyLWCdxqKHFblnzPD-6" target="KFeVyLWCdxqKHFblnzPD-5">
                    <mxGeometry relative="1" as="geometry"/>
                </mxCell>
                <mxCell id="KFeVyLWCdxqKHFblnzPD-6" value="admission" style="rhombus;whiteSpace=wrap;html=1;" vertex="1" parent="KFeVyLWCdxqKHFblnzPD-1">
                    <mxGeometry x="450" y="290" width="80" height="80" as="geometry"/>
                </mxCell>
                <mxCell id="KFeVyLWCdxqKHFblnzPD-7" value="units" style="rounded=0;whiteSpace=wrap;html=1;" vertex="1" parent="KFeVyLWCdxqKHFblnzPD-1">
                    <mxGeometry x="430" y="590" width="120" height="60" as="geometry"/>
                </mxCell>
                <mxCell id="KrVRhkm09FR2dddCdwVr-14" style="edgeStyle=none;html=1;entryX=0;entryY=0.5;entryDx=0;entryDy=0;" edge="1" parent="KFeVyLWCdxqKHFblnzPD-1" source="KFeVyLWCdxqKHFblnzPD-8" target="KFeVyLWCdxqKHFblnzPD-11">
                    <mxGeometry relative="1" as="geometry"/>
                </mxCell>
                <mxCell id="KFeVyLWCdxqKHFblnzPD-8" value="doctors" style="rounded=0;whiteSpace=wrap;html=1;" vertex="1" parent="KFeVyLWCdxqKHFblnzPD-1">
                    <mxGeometry x="-370" y="30" width="120" height="60" as="geometry"/>
                </mxCell>
                <mxCell id="KrVRhkm09FR2dddCdwVr-15" style="edgeStyle=none;html=1;entryX=0;entryY=0.5;entryDx=0;entryDy=0;" edge="1" parent="KFeVyLWCdxqKHFblnzPD-1" source="KFeVyLWCdxqKHFblnzPD-11" target="KFeVyLWCdxqKHFblnzPD-5">
                    <mxGeometry relative="1" as="geometry"/>
                </mxCell>
                <mxCell id="KFeVyLWCdxqKHFblnzPD-11" value="intervention" style="rhombus;whiteSpace=wrap;html=1;" vertex="1" parent="KFeVyLWCdxqKHFblnzPD-1">
                    <mxGeometry x="40" y="20" width="80" height="80" as="geometry"/>
                </mxCell>
                <mxCell id="KrVRhkm09FR2dddCdwVr-6" style="edgeStyle=none;html=1;entryX=0;entryY=0.5;entryDx=0;entryDy=0;" edge="1" parent="KFeVyLWCdxqKHFblnzPD-1" source="KrVRhkm09FR2dddCdwVr-3" target="KFeVyLWCdxqKHFblnzPD-7">
                    <mxGeometry relative="1" as="geometry"/>
                </mxCell>
                <mxCell id="KrVRhkm09FR2dddCdwVr-3" value="indentifier&lt;br&gt;unit id" style="ellipse;whiteSpace=wrap;html=1;" vertex="1" parent="KFeVyLWCdxqKHFblnzPD-1">
                    <mxGeometry x="230" y="700" width="110" height="80" as="geometry"/>
                </mxCell>
                <mxCell id="KrVRhkm09FR2dddCdwVr-8" style="edgeStyle=none;html=1;" edge="1" parent="KFeVyLWCdxqKHFblnzPD-1" source="KrVRhkm09FR2dddCdwVr-4" target="KFeVyLWCdxqKHFblnzPD-7">
                    <mxGeometry relative="1" as="geometry"/>
                </mxCell>
                <mxCell id="KrVRhkm09FR2dddCdwVr-4" value="&lt;span&gt;name&lt;/span&gt;" style="ellipse;whiteSpace=wrap;html=1;" vertex="1" parent="KFeVyLWCdxqKHFblnzPD-1">
                    <mxGeometry x="680" y="530" width="120" height="80" as="geometry"/>
                </mxCell>
                <mxCell id="KrVRhkm09FR2dddCdwVr-7" style="edgeStyle=none;html=1;entryX=1;entryY=0.5;entryDx=0;entryDy=0;" edge="1" parent="KFeVyLWCdxqKHFblnzPD-1" source="KrVRhkm09FR2dddCdwVr-5" target="KFeVyLWCdxqKHFblnzPD-7">
                    <mxGeometry relative="1" as="geometry"/>
                </mxCell>
                <mxCell id="KrVRhkm09FR2dddCdwVr-5" value="floor" style="ellipse;whiteSpace=wrap;html=1;" vertex="1" parent="KFeVyLWCdxqKHFblnzPD-1">
                    <mxGeometry x="670" y="660" width="120" height="80" as="geometry"/>
                </mxCell>
                <mxCell id="KrVRhkm09FR2dddCdwVr-10" style="edgeStyle=none;html=1;entryX=0;entryY=0.25;entryDx=0;entryDy=0;" edge="1" parent="KFeVyLWCdxqKHFblnzPD-1" source="KrVRhkm09FR2dddCdwVr-9" target="KFeVyLWCdxqKHFblnzPD-7">
                    <mxGeometry relative="1" as="geometry"/>
                </mxCell>
                <mxCell id="KrVRhkm09FR2dddCdwVr-9" value="doctors" style="ellipse;whiteSpace=wrap;html=1;" vertex="1" parent="KFeVyLWCdxqKHFblnzPD-1">
                    <mxGeometry x="210" y="530" width="120" height="80" as="geometry"/>
                </mxCell>
                <mxCell id="KrVRhkm09FR2dddCdwVr-21" style="edgeStyle=none;html=1;entryX=0;entryY=0.5;entryDx=0;entryDy=0;" edge="1" parent="KFeVyLWCdxqKHFblnzPD-1" source="KrVRhkm09FR2dddCdwVr-16" target="KFeVyLWCdxqKHFblnzPD-6">
                    <mxGeometry relative="1" as="geometry"/>
                </mxCell>
                <mxCell id="KrVRhkm09FR2dddCdwVr-16" value="date of admission" style="ellipse;whiteSpace=wrap;html=1;" vertex="1" parent="KFeVyLWCdxqKHFblnzPD-1">
                    <mxGeometry x="240" y="290" width="120" height="80" as="geometry"/>
                </mxCell>
                <mxCell id="KrVRhkm09FR2dddCdwVr-19" style="edgeStyle=none;html=1;" edge="1" parent="KFeVyLWCdxqKHFblnzPD-1" source="KrVRhkm09FR2dddCdwVr-17" target="KFeVyLWCdxqKHFblnzPD-6">
                    <mxGeometry relative="1" as="geometry"/>
                </mxCell>
                <mxCell id="KrVRhkm09FR2dddCdwVr-17" value="Social Security Number" style="ellipse;whiteSpace=wrap;html=1;" vertex="1" parent="KFeVyLWCdxqKHFblnzPD-1">
                    <mxGeometry x="630" y="190" width="120" height="80" as="geometry"/>
                </mxCell>
                <mxCell id="KrVRhkm09FR2dddCdwVr-20" style="edgeStyle=none;html=1;entryX=1;entryY=0.5;entryDx=0;entryDy=0;" edge="1" parent="KFeVyLWCdxqKHFblnzPD-1" source="KrVRhkm09FR2dddCdwVr-18" target="KFeVyLWCdxqKHFblnzPD-6">
                    <mxGeometry relative="1" as="geometry"/>
                </mxCell>
                <mxCell id="KrVRhkm09FR2dddCdwVr-18" value="age" style="ellipse;whiteSpace=wrap;html=1;" vertex="1" parent="KFeVyLWCdxqKHFblnzPD-1">
                    <mxGeometry x="630" y="330" width="120" height="80" as="geometry"/>
                </mxCell>
                <mxCell id="KrVRhkm09FR2dddCdwVr-23" style="edgeStyle=none;html=1;entryX=1;entryY=0.5;entryDx=0;entryDy=0;" edge="1" parent="KFeVyLWCdxqKHFblnzPD-1" source="KrVRhkm09FR2dddCdwVr-22" target="KFeVyLWCdxqKHFblnzPD-5">
                    <mxGeometry relative="1" as="geometry"/>
                </mxCell>
                <mxCell id="KrVRhkm09FR2dddCdwVr-22" value="status" style="ellipse;whiteSpace=wrap;html=1;" vertex="1" parent="KFeVyLWCdxqKHFblnzPD-1">
                    <mxGeometry x="650" y="20" width="120" height="80" as="geometry"/>
                </mxCell>
                <mxCell id="KrVRhkm09FR2dddCdwVr-29" style="edgeStyle=none;html=1;" edge="1" parent="KFeVyLWCdxqKHFblnzPD-1" source="KrVRhkm09FR2dddCdwVr-24" target="KFeVyLWCdxqKHFblnzPD-11">
                    <mxGeometry relative="1" as="geometry"/>
                </mxCell>
                <mxCell id="KrVRhkm09FR2dddCdwVr-24" value="observed symptom" style="ellipse;whiteSpace=wrap;html=1;" vertex="1" parent="KFeVyLWCdxqKHFblnzPD-1">
                    <mxGeometry x="-30" y="-170" width="120" height="80" as="geometry"/>
                </mxCell>
                <mxCell id="KrVRhkm09FR2dddCdwVr-30" style="edgeStyle=none;html=1;" edge="1" parent="KFeVyLWCdxqKHFblnzPD-1" source="KrVRhkm09FR2dddCdwVr-25" target="KFeVyLWCdxqKHFblnzPD-11">
                    <mxGeometry relative="1" as="geometry"/>
                </mxCell>
                <mxCell id="KrVRhkm09FR2dddCdwVr-25" value="prescribed treatment" style="ellipse;whiteSpace=wrap;html=1;" vertex="1" parent="KFeVyLWCdxqKHFblnzPD-1">
                    <mxGeometry x="-180" y="-100" width="120" height="80" as="geometry"/>
                </mxCell>
                <mxCell id="KrVRhkm09FR2dddCdwVr-28" style="edgeStyle=none;html=1;entryX=0.888;entryY=0.338;entryDx=0;entryDy=0;entryPerimeter=0;" edge="1" parent="KFeVyLWCdxqKHFblnzPD-1" source="KrVRhkm09FR2dddCdwVr-26" target="KFeVyLWCdxqKHFblnzPD-11">
                    <mxGeometry relative="1" as="geometry"/>
                </mxCell>
                <mxCell id="KrVRhkm09FR2dddCdwVr-26" value="setting the date" style="ellipse;whiteSpace=wrap;html=1;" vertex="1" parent="KFeVyLWCdxqKHFblnzPD-1">
                    <mxGeometry x="130" y="-160" width="120" height="80" as="geometry"/>
                </mxCell>
                <mxCell id="KrVRhkm09FR2dddCdwVr-37" style="edgeStyle=none;html=1;entryX=0.658;entryY=0.017;entryDx=0;entryDy=0;entryPerimeter=0;" edge="1" parent="KFeVyLWCdxqKHFblnzPD-1" source="KrVRhkm09FR2dddCdwVr-32" target="KFeVyLWCdxqKHFblnzPD-5">
                    <mxGeometry relative="1" as="geometry"/>
                </mxCell>
                <mxCell id="KrVRhkm09FR2dddCdwVr-32" value="Address" style="ellipse;whiteSpace=wrap;html=1;" vertex="1" parent="KFeVyLWCdxqKHFblnzPD-1">
                    <mxGeometry x="470" y="-130" width="120" height="80" as="geometry"/>
                </mxCell>
                <mxCell id="KrVRhkm09FR2dddCdwVr-36" style="edgeStyle=none;html=1;entryX=0.158;entryY=-0.033;entryDx=0;entryDy=0;entryPerimeter=0;" edge="1" parent="KFeVyLWCdxqKHFblnzPD-1" source="KrVRhkm09FR2dddCdwVr-33" target="KFeVyLWCdxqKHFblnzPD-5">
                    <mxGeometry relative="1" as="geometry"/>
                </mxCell>
                <mxCell id="KrVRhkm09FR2dddCdwVr-33" value="Lname" style="ellipse;whiteSpace=wrap;html=1;" vertex="1" parent="KFeVyLWCdxqKHFblnzPD-1">
                    <mxGeometry x="320" y="-90" width="120" height="80" as="geometry"/>
                </mxCell>
                <mxCell id="KrVRhkm09FR2dddCdwVr-39" style="edgeStyle=none;html=1;entryX=0.25;entryY=1;entryDx=0;entryDy=0;" edge="1" parent="KFeVyLWCdxqKHFblnzPD-1" source="KrVRhkm09FR2dddCdwVr-34" target="KFeVyLWCdxqKHFblnzPD-5">
                    <mxGeometry relative="1" as="geometry"/>
                </mxCell>
                <mxCell id="KrVRhkm09FR2dddCdwVr-34" value="Fname" style="ellipse;whiteSpace=wrap;html=1;" vertex="1" parent="KFeVyLWCdxqKHFblnzPD-1">
                    <mxGeometry x="310" y="120" width="120" height="80" as="geometry"/>
                </mxCell>
                <mxCell id="KrVRhkm09FR2dddCdwVr-38" style="edgeStyle=none;html=1;entryX=0.908;entryY=0.033;entryDx=0;entryDy=0;entryPerimeter=0;" edge="1" parent="KFeVyLWCdxqKHFblnzPD-1" source="KrVRhkm09FR2dddCdwVr-35" target="KFeVyLWCdxqKHFblnzPD-5">
                    <mxGeometry relative="1" as="geometry"/>
                </mxCell>
                <mxCell id="KrVRhkm09FR2dddCdwVr-35" value="PatientID" style="ellipse;whiteSpace=wrap;html=1;" vertex="1" parent="KFeVyLWCdxqKHFblnzPD-1">
                    <mxGeometry x="620" y="-110" width="120" height="80" as="geometry"/>
                </mxCell>
                <mxCell id="KrVRhkm09FR2dddCdwVr-46" style="edgeStyle=none;html=1;" edge="1" parent="KFeVyLWCdxqKHFblnzPD-1" source="KrVRhkm09FR2dddCdwVr-40" target="KFeVyLWCdxqKHFblnzPD-8">
                    <mxGeometry relative="1" as="geometry"/>
                </mxCell>
                <mxCell id="KrVRhkm09FR2dddCdwVr-40" value="Code" style="ellipse;whiteSpace=wrap;html=1;" vertex="1" parent="KFeVyLWCdxqKHFblnzPD-1">
                    <mxGeometry x="-440" y="400" width="120" height="80" as="geometry"/>
                </mxCell>
                <mxCell id="KrVRhkm09FR2dddCdwVr-44" style="edgeStyle=none;html=1;entryX=0;entryY=0.25;entryDx=0;entryDy=0;" edge="1" parent="KFeVyLWCdxqKHFblnzPD-1" source="KrVRhkm09FR2dddCdwVr-41" target="KFeVyLWCdxqKHFblnzPD-8">
                    <mxGeometry relative="1" as="geometry"/>
                </mxCell>
                <mxCell id="KrVRhkm09FR2dddCdwVr-41" value="Fname" style="ellipse;whiteSpace=wrap;html=1;" vertex="1" parent="KFeVyLWCdxqKHFblnzPD-1">
                    <mxGeometry x="-590" y="-140" width="120" height="80" as="geometry"/>
                </mxCell>
                <mxCell id="KrVRhkm09FR2dddCdwVr-45" style="edgeStyle=none;html=1;" edge="1" parent="KFeVyLWCdxqKHFblnzPD-1" source="KrVRhkm09FR2dddCdwVr-42" target="KFeVyLWCdxqKHFblnzPD-8">
                    <mxGeometry relative="1" as="geometry"/>
                </mxCell>
                <mxCell id="KrVRhkm09FR2dddCdwVr-42" value="Lname" style="ellipse;whiteSpace=wrap;html=1;" vertex="1" parent="KFeVyLWCdxqKHFblnzPD-1">
                    <mxGeometry x="-610" y="270" width="120" height="80" as="geometry"/>
                </mxCell>
                <mxCell id="KrVRhkm09FR2dddCdwVr-47" style="edgeStyle=none;html=1;entryX=0.5;entryY=0;entryDx=0;entryDy=0;" edge="1" parent="KFeVyLWCdxqKHFblnzPD-1" source="KrVRhkm09FR2dddCdwVr-43" target="KFeVyLWCdxqKHFblnzPD-8">
                    <mxGeometry relative="1" as="geometry"/>
                </mxCell>
                <mxCell id="KrVRhkm09FR2dddCdwVr-43" value="specialty" style="ellipse;whiteSpace=wrap;html=1;" vertex="1" parent="KFeVyLWCdxqKHFblnzPD-1">
                    <mxGeometry x="-380" y="-190" width="120" height="80" as="geometry"/>
                </mxCell>
                <mxCell id="KrVRhkm09FR2dddCdwVr-49" style="edgeStyle=none;html=1;entryX=0.017;entryY=0.633;entryDx=0;entryDy=0;entryPerimeter=0;" edge="1" parent="KFeVyLWCdxqKHFblnzPD-1" source="KrVRhkm09FR2dddCdwVr-48" target="KFeVyLWCdxqKHFblnzPD-8">
                    <mxGeometry relative="1" as="geometry"/>
                </mxCell>
                <mxCell id="KrVRhkm09FR2dddCdwVr-48" value="doctorID" style="ellipse;whiteSpace=wrap;html=1;" vertex="1" parent="KFeVyLWCdxqKHFblnzPD-1">
                    <mxGeometry x="-690" y="60" width="120" height="80" as="geometry"/>
                </mxCell>
            </root>
        </mxGraphModel>
    </diagram>
    <diagram id="mhoyDAIx_BAiCb_UGWA2" name="UML">
        <mxGraphModel dx="2474" dy="1150" grid="1" gridSize="10" guides="1" tooltips="1" connect="1" arrows="1" fold="1" page="1" pageScale="1" pageWidth="827" pageHeight="1169" math="0" shadow="0">
            <root>
                <mxCell id="2BkSzXlzHg1NGjeiTHj2-0"/>
                <mxCell id="2BkSzXlzHg1NGjeiTHj2-1" parent="2BkSzXlzHg1NGjeiTHj2-0"/>
                <mxCell id="E9WJHHz97rBhvGz7yDwC-0" style="edgeStyle=none;html=1;entryX=0.53;entryY=-0.007;entryDx=0;entryDy=0;entryPerimeter=0;startArrow=ERone;startFill=0;endArrow=ERmany;endFill=0;" edge="1" parent="2BkSzXlzHg1NGjeiTHj2-1" source="E9WJHHz97rBhvGz7yDwC-1" target="E9WJHHz97rBhvGz7yDwC-29">
                    <mxGeometry relative="1" as="geometry"/>
                </mxCell>
                <mxCell id="E9WJHHz97rBhvGz7yDwC-1" value="Patients" style="swimlane;fontStyle=1;align=center;verticalAlign=top;childLayout=stackLayout;horizontal=1;startSize=26;horizontalStack=0;resizeParent=1;resizeParentMax=0;resizeLast=0;collapsible=1;marginBottom=0;" vertex="1" parent="2BkSzXlzHg1NGjeiTHj2-1">
                    <mxGeometry x="580" y="273" width="160" height="164" as="geometry"/>
                </mxCell>
                <mxCell id="E9WJHHz97rBhvGz7yDwC-2" value="+ Patient_ID: int" style="text;strokeColor=none;fillColor=none;align=left;verticalAlign=top;spacingLeft=4;spacingRight=4;overflow=hidden;rotatable=0;points=[[0,0.5],[1,0.5]];portConstraint=eastwest;" vertex="1" parent="E9WJHHz97rBhvGz7yDwC-1">
                    <mxGeometry y="26" width="160" height="26" as="geometry"/>
                </mxCell>
                <mxCell id="E9WJHHz97rBhvGz7yDwC-3" value="" style="line;strokeWidth=1;fillColor=none;align=left;verticalAlign=middle;spacingTop=-1;spacingLeft=3;spacingRight=3;rotatable=0;labelPosition=right;points=[];portConstraint=eastwest;" vertex="1" parent="E9WJHHz97rBhvGz7yDwC-1">
                    <mxGeometry y="52" width="160" height="8" as="geometry"/>
                </mxCell>
                <mxCell id="E9WJHHz97rBhvGz7yDwC-4" value="+ Fname: string" style="text;strokeColor=none;fillColor=none;align=left;verticalAlign=top;spacingLeft=4;spacingRight=4;overflow=hidden;rotatable=0;points=[[0,0.5],[1,0.5]];portConstraint=eastwest;" vertex="1" parent="E9WJHHz97rBhvGz7yDwC-1">
                    <mxGeometry y="60" width="160" height="26" as="geometry"/>
                </mxCell>
                <mxCell id="E9WJHHz97rBhvGz7yDwC-5" value="+ Lname: string" style="text;strokeColor=none;fillColor=none;align=left;verticalAlign=top;spacingLeft=4;spacingRight=4;overflow=hidden;rotatable=0;points=[[0,0.5],[1,0.5]];portConstraint=eastwest;" vertex="1" parent="E9WJHHz97rBhvGz7yDwC-1">
                    <mxGeometry y="86" width="160" height="26" as="geometry"/>
                </mxCell>
                <mxCell id="E9WJHHz97rBhvGz7yDwC-6" value="+ Adress: string" style="text;strokeColor=none;fillColor=none;align=left;verticalAlign=top;spacingLeft=4;spacingRight=4;overflow=hidden;rotatable=0;points=[[0,0.5],[1,0.5]];portConstraint=eastwest;" vertex="1" parent="E9WJHHz97rBhvGz7yDwC-1">
                    <mxGeometry y="112" width="160" height="26" as="geometry"/>
                </mxCell>
                <mxCell id="E9WJHHz97rBhvGz7yDwC-7" value="+ status: boolean" style="text;strokeColor=none;fillColor=none;align=left;verticalAlign=top;spacingLeft=4;spacingRight=4;overflow=hidden;rotatable=0;points=[[0,0.5],[1,0.5]];portConstraint=eastwest;" vertex="1" parent="E9WJHHz97rBhvGz7yDwC-1">
                    <mxGeometry y="138" width="160" height="26" as="geometry"/>
                </mxCell>
                <mxCell id="E9WJHHz97rBhvGz7yDwC-8" value="Doctors" style="swimlane;fontStyle=1;align=center;verticalAlign=top;childLayout=stackLayout;horizontal=1;startSize=26;horizontalStack=0;resizeParent=1;resizeParentMax=0;resizeLast=0;collapsible=1;marginBottom=0;" vertex="1" parent="2BkSzXlzHg1NGjeiTHj2-1">
                    <mxGeometry x="-170" y="480" width="160" height="164" as="geometry"/>
                </mxCell>
                <mxCell id="E9WJHHz97rBhvGz7yDwC-9" value="+ Doctors_ID: int" style="text;strokeColor=none;fillColor=none;align=left;verticalAlign=top;spacingLeft=4;spacingRight=4;overflow=hidden;rotatable=0;points=[[0,0.5],[1,0.5]];portConstraint=eastwest;" vertex="1" parent="E9WJHHz97rBhvGz7yDwC-8">
                    <mxGeometry y="26" width="160" height="26" as="geometry"/>
                </mxCell>
                <mxCell id="E9WJHHz97rBhvGz7yDwC-10" value="" style="line;strokeWidth=1;fillColor=none;align=left;verticalAlign=middle;spacingTop=-1;spacingLeft=3;spacingRight=3;rotatable=0;labelPosition=right;points=[];portConstraint=eastwest;" vertex="1" parent="E9WJHHz97rBhvGz7yDwC-8">
                    <mxGeometry y="52" width="160" height="8" as="geometry"/>
                </mxCell>
                <mxCell id="E9WJHHz97rBhvGz7yDwC-11" value="+ Fname: string" style="text;strokeColor=none;fillColor=none;align=left;verticalAlign=top;spacingLeft=4;spacingRight=4;overflow=hidden;rotatable=0;points=[[0,0.5],[1,0.5]];portConstraint=eastwest;" vertex="1" parent="E9WJHHz97rBhvGz7yDwC-8">
                    <mxGeometry y="60" width="160" height="26" as="geometry"/>
                </mxCell>
                <mxCell id="E9WJHHz97rBhvGz7yDwC-12" value="+ Lname: string" style="text;strokeColor=none;fillColor=none;align=left;verticalAlign=top;spacingLeft=4;spacingRight=4;overflow=hidden;rotatable=0;points=[[0,0.5],[1,0.5]];portConstraint=eastwest;" vertex="1" parent="E9WJHHz97rBhvGz7yDwC-8">
                    <mxGeometry y="86" width="160" height="26" as="geometry"/>
                </mxCell>
                <mxCell id="E9WJHHz97rBhvGz7yDwC-13" value="+ speciality : string" style="text;strokeColor=none;fillColor=none;align=left;verticalAlign=top;spacingLeft=4;spacingRight=4;overflow=hidden;rotatable=0;points=[[0,0.5],[1,0.5]];portConstraint=eastwest;" vertex="1" parent="E9WJHHz97rBhvGz7yDwC-8">
                    <mxGeometry y="112" width="160" height="26" as="geometry"/>
                </mxCell>
                <mxCell id="E9WJHHz97rBhvGz7yDwC-14" value="+ code: int" style="text;strokeColor=none;fillColor=none;align=left;verticalAlign=top;spacingLeft=4;spacingRight=4;overflow=hidden;rotatable=0;points=[[0,0.5],[1,0.5]];portConstraint=eastwest;" vertex="1" parent="E9WJHHz97rBhvGz7yDwC-8">
                    <mxGeometry y="138" width="160" height="26" as="geometry"/>
                </mxCell>
                <mxCell id="E9WJHHz97rBhvGz7yDwC-15" style="edgeStyle=none;html=1;entryX=0.631;entryY=1.115;entryDx=0;entryDy=0;entryPerimeter=0;startArrow=ERmany;startFill=0;endArrow=ERmany;endFill=0;" edge="1" parent="2BkSzXlzHg1NGjeiTHj2-1" source="E9WJHHz97rBhvGz7yDwC-16" target="E9WJHHz97rBhvGz7yDwC-14">
                    <mxGeometry relative="1" as="geometry"/>
                </mxCell>
                <mxCell id="E9WJHHz97rBhvGz7yDwC-16" value="Units" style="swimlane;fontStyle=1;align=center;verticalAlign=top;childLayout=stackLayout;horizontal=1;startSize=26;horizontalStack=0;resizeParent=1;resizeParentMax=0;resizeLast=0;collapsible=1;marginBottom=0;" vertex="1" parent="2BkSzXlzHg1NGjeiTHj2-1">
                    <mxGeometry x="240" y="900" width="160" height="138" as="geometry"/>
                </mxCell>
                <mxCell id="E9WJHHz97rBhvGz7yDwC-17" value="+ Units_ID: int" style="text;strokeColor=none;fillColor=none;align=left;verticalAlign=top;spacingLeft=4;spacingRight=4;overflow=hidden;rotatable=0;points=[[0,0.5],[1,0.5]];portConstraint=eastwest;" vertex="1" parent="E9WJHHz97rBhvGz7yDwC-16">
                    <mxGeometry y="26" width="160" height="26" as="geometry"/>
                </mxCell>
                <mxCell id="E9WJHHz97rBhvGz7yDwC-18" value="" style="line;strokeWidth=1;fillColor=none;align=left;verticalAlign=middle;spacingTop=-1;spacingLeft=3;spacingRight=3;rotatable=0;labelPosition=right;points=[];portConstraint=eastwest;" vertex="1" parent="E9WJHHz97rBhvGz7yDwC-16">
                    <mxGeometry y="52" width="160" height="8" as="geometry"/>
                </mxCell>
                <mxCell id="E9WJHHz97rBhvGz7yDwC-19" value="+ Name: string" style="text;strokeColor=none;fillColor=none;align=left;verticalAlign=top;spacingLeft=4;spacingRight=4;overflow=hidden;rotatable=0;points=[[0,0.5],[1,0.5]];portConstraint=eastwest;" vertex="1" parent="E9WJHHz97rBhvGz7yDwC-16">
                    <mxGeometry y="60" width="160" height="26" as="geometry"/>
                </mxCell>
                <mxCell id="E9WJHHz97rBhvGz7yDwC-20" value="+ floor: int" style="text;strokeColor=none;fillColor=none;align=left;verticalAlign=top;spacingLeft=4;spacingRight=4;overflow=hidden;rotatable=0;points=[[0,0.5],[1,0.5]];portConstraint=eastwest;" vertex="1" parent="E9WJHHz97rBhvGz7yDwC-16">
                    <mxGeometry y="86" width="160" height="26" as="geometry"/>
                </mxCell>
                <mxCell id="E9WJHHz97rBhvGz7yDwC-21" value="+ Doctors_ID: int" style="text;strokeColor=none;fillColor=none;align=left;verticalAlign=top;spacingLeft=4;spacingRight=4;overflow=hidden;rotatable=0;points=[[0,0.5],[1,0.5]];portConstraint=eastwest;" vertex="1" parent="E9WJHHz97rBhvGz7yDwC-16">
                    <mxGeometry y="112" width="160" height="26" as="geometry"/>
                </mxCell>
                <mxCell id="E9WJHHz97rBhvGz7yDwC-22" value="Interventions" style="swimlane;fontStyle=1;align=center;verticalAlign=top;childLayout=stackLayout;horizontal=1;startSize=26;horizontalStack=0;resizeParent=1;resizeParentMax=0;resizeLast=0;collapsible=1;marginBottom=0;" vertex="1" parent="2BkSzXlzHg1NGjeiTHj2-1">
                    <mxGeometry x="210" y="273" width="230" height="138" as="geometry"/>
                </mxCell>
                <mxCell id="E9WJHHz97rBhvGz7yDwC-23" value="+ Interventions_ID: int" style="text;strokeColor=none;fillColor=none;align=left;verticalAlign=top;spacingLeft=4;spacingRight=4;overflow=hidden;rotatable=0;points=[[0,0.5],[1,0.5]];portConstraint=eastwest;" vertex="1" parent="E9WJHHz97rBhvGz7yDwC-22">
                    <mxGeometry y="26" width="230" height="26" as="geometry"/>
                </mxCell>
                <mxCell id="E9WJHHz97rBhvGz7yDwC-24" value="" style="line;strokeWidth=1;fillColor=none;align=left;verticalAlign=middle;spacingTop=-1;spacingLeft=3;spacingRight=3;rotatable=0;labelPosition=right;points=[];portConstraint=eastwest;" vertex="1" parent="E9WJHHz97rBhvGz7yDwC-22">
                    <mxGeometry y="52" width="230" height="8" as="geometry"/>
                </mxCell>
                <mxCell id="E9WJHHz97rBhvGz7yDwC-25" value="+ prescribed_treatment: string" style="text;strokeColor=none;fillColor=none;align=left;verticalAlign=top;spacingLeft=4;spacingRight=4;overflow=hidden;rotatable=0;points=[[0,0.5],[1,0.5]];portConstraint=eastwest;" vertex="1" parent="E9WJHHz97rBhvGz7yDwC-22">
                    <mxGeometry y="60" width="230" height="26" as="geometry"/>
                </mxCell>
                <mxCell id="E9WJHHz97rBhvGz7yDwC-26" value="+ observed_symptom: string" style="text;strokeColor=none;fillColor=none;align=left;verticalAlign=top;spacingLeft=4;spacingRight=4;overflow=hidden;rotatable=0;points=[[0,0.5],[1,0.5]];portConstraint=eastwest;" vertex="1" parent="E9WJHHz97rBhvGz7yDwC-22">
                    <mxGeometry y="86" width="230" height="26" as="geometry"/>
                </mxCell>
                <mxCell id="E9WJHHz97rBhvGz7yDwC-27" value="+ setting_the_date: date" style="text;strokeColor=none;fillColor=none;align=left;verticalAlign=top;spacingLeft=4;spacingRight=4;overflow=hidden;rotatable=0;points=[[0,0.5],[1,0.5]];portConstraint=eastwest;" vertex="1" parent="E9WJHHz97rBhvGz7yDwC-22">
                    <mxGeometry y="112" width="230" height="26" as="geometry"/>
                </mxCell>
                <mxCell id="E9WJHHz97rBhvGz7yDwC-28" style="edgeStyle=none;html=1;entryX=0.463;entryY=-0.045;entryDx=0;entryDy=0;entryPerimeter=0;startArrow=ERmany;startFill=0;endArrow=ERone;endFill=0;" edge="1" parent="2BkSzXlzHg1NGjeiTHj2-1" source="E9WJHHz97rBhvGz7yDwC-29" target="E9WJHHz97rBhvGz7yDwC-16">
                    <mxGeometry relative="1" as="geometry"/>
                </mxCell>
                <mxCell id="E9WJHHz97rBhvGz7yDwC-29" value="Admission" style="swimlane;fontStyle=1;align=center;verticalAlign=top;childLayout=stackLayout;horizontal=1;startSize=26;horizontalStack=0;resizeParent=1;resizeParentMax=0;resizeLast=0;collapsible=1;marginBottom=0;" vertex="1" parent="2BkSzXlzHg1NGjeiTHj2-1">
                    <mxGeometry x="520" y="585" width="266" height="138" as="geometry"/>
                </mxCell>
                <mxCell id="E9WJHHz97rBhvGz7yDwC-30" value="+ Admission_ID: int" style="text;strokeColor=none;fillColor=none;align=left;verticalAlign=top;spacingLeft=4;spacingRight=4;overflow=hidden;rotatable=0;points=[[0,0.5],[1,0.5]];portConstraint=eastwest;" vertex="1" parent="E9WJHHz97rBhvGz7yDwC-29">
                    <mxGeometry y="26" width="266" height="26" as="geometry"/>
                </mxCell>
                <mxCell id="E9WJHHz97rBhvGz7yDwC-31" value="" style="line;strokeWidth=1;fillColor=none;align=left;verticalAlign=middle;spacingTop=-1;spacingLeft=3;spacingRight=3;rotatable=0;labelPosition=right;points=[];portConstraint=eastwest;" vertex="1" parent="E9WJHHz97rBhvGz7yDwC-29">
                    <mxGeometry y="52" width="266" height="8" as="geometry"/>
                </mxCell>
                <mxCell id="E9WJHHz97rBhvGz7yDwC-32" value="+ date_of_admission: date" style="text;strokeColor=none;fillColor=none;align=left;verticalAlign=top;spacingLeft=4;spacingRight=4;overflow=hidden;rotatable=0;points=[[0,0.5],[1,0.5]];portConstraint=eastwest;" vertex="1" parent="E9WJHHz97rBhvGz7yDwC-29">
                    <mxGeometry y="60" width="266" height="26" as="geometry"/>
                </mxCell>
                <mxCell id="E9WJHHz97rBhvGz7yDwC-33" value="+ social_security_number: int" style="text;strokeColor=none;fillColor=none;align=left;verticalAlign=top;spacingLeft=4;spacingRight=4;overflow=hidden;rotatable=0;points=[[0,0.5],[1,0.5]];portConstraint=eastwest;" vertex="1" parent="E9WJHHz97rBhvGz7yDwC-29">
                    <mxGeometry y="86" width="266" height="26" as="geometry"/>
                </mxCell>
                <mxCell id="E9WJHHz97rBhvGz7yDwC-34" value="+ age : int" style="text;strokeColor=none;fillColor=none;align=left;verticalAlign=top;spacingLeft=4;spacingRight=4;overflow=hidden;rotatable=0;points=[[0,0.5],[1,0.5]];portConstraint=eastwest;" vertex="1" parent="E9WJHHz97rBhvGz7yDwC-29">
                    <mxGeometry y="112" width="266" height="26" as="geometry"/>
                </mxCell>
                <mxCell id="E9WJHHz97rBhvGz7yDwC-35" value="" style="edgeStyle=entityRelationEdgeStyle;fontSize=12;html=1;endArrow=ERmany;endFill=0;entryX=-0.017;entryY=0.808;entryDx=0;entryDy=0;entryPerimeter=0;exitX=1;exitY=0.5;exitDx=0;exitDy=0;startArrow=ERmany;startFill=0;" edge="1" parent="2BkSzXlzHg1NGjeiTHj2-1" source="E9WJHHz97rBhvGz7yDwC-13" target="E9WJHHz97rBhvGz7yDwC-25">
                    <mxGeometry width="100" height="100" relative="1" as="geometry">
                        <mxPoint x="70" y="411" as="sourcePoint"/>
                        <mxPoint x="170" y="311" as="targetPoint"/>
                    </mxGeometry>
                </mxCell>
                <mxCell id="E9WJHHz97rBhvGz7yDwC-36" value="" style="edgeStyle=entityRelationEdgeStyle;fontSize=12;html=1;endArrow=ERone;endFill=0;entryX=-0.012;entryY=0.154;entryDx=0;entryDy=0;entryPerimeter=0;exitX=1;exitY=0.5;exitDx=0;exitDy=0;startArrow=ERmany;startFill=0;" edge="1" parent="2BkSzXlzHg1NGjeiTHj2-1" source="E9WJHHz97rBhvGz7yDwC-26" target="E9WJHHz97rBhvGz7yDwC-5">
                    <mxGeometry width="100" height="100" relative="1" as="geometry">
                        <mxPoint x="460" y="420" as="sourcePoint"/>
                        <mxPoint x="560" y="320" as="targetPoint"/>
                    </mxGeometry>
                </mxCell>
            </root>
        </mxGraphModel>
    </diagram>
    <diagram id="eESHeocDzScS_T7CX8dU" name="UML-norm">
        <mxGraphModel dx="2474" dy="1150" grid="1" gridSize="10" guides="1" tooltips="1" connect="1" arrows="1" fold="1" page="1" pageScale="1" pageWidth="827" pageHeight="1169" math="0" shadow="0">
            <root>
                <mxCell id="kCNhBbxGzEiBGBO0i_PV-0"/>
                <mxCell id="kCNhBbxGzEiBGBO0i_PV-1" parent="kCNhBbxGzEiBGBO0i_PV-0"/>
                <mxCell id="kCNhBbxGzEiBGBO0i_PV-2" style="edgeStyle=none;html=1;entryX=0.53;entryY=-0.007;entryDx=0;entryDy=0;entryPerimeter=0;startArrow=ERone;startFill=0;endArrow=ERmany;endFill=0;" edge="1" parent="kCNhBbxGzEiBGBO0i_PV-1" source="kCNhBbxGzEiBGBO0i_PV-3" target="kCNhBbxGzEiBGBO0i_PV-29">
                    <mxGeometry relative="1" as="geometry"/>
                </mxCell>
                <mxCell id="kCNhBbxGzEiBGBO0i_PV-3" value="Patients" style="swimlane;fontStyle=1;align=center;verticalAlign=top;childLayout=stackLayout;horizontal=1;startSize=26;horizontalStack=0;resizeParent=1;resizeParentMax=0;resizeLast=0;collapsible=1;marginBottom=0;" vertex="1" parent="kCNhBbxGzEiBGBO0i_PV-1">
                    <mxGeometry x="580" y="273" width="160" height="164" as="geometry"/>
                </mxCell>
                <mxCell id="kCNhBbxGzEiBGBO0i_PV-4" value="+ Patient_ID: int" style="text;strokeColor=none;fillColor=none;align=left;verticalAlign=top;spacingLeft=4;spacingRight=4;overflow=hidden;rotatable=0;points=[[0,0.5],[1,0.5]];portConstraint=eastwest;" vertex="1" parent="kCNhBbxGzEiBGBO0i_PV-3">
                    <mxGeometry y="26" width="160" height="26" as="geometry"/>
                </mxCell>
                <mxCell id="kCNhBbxGzEiBGBO0i_PV-5" value="" style="line;strokeWidth=1;fillColor=none;align=left;verticalAlign=middle;spacingTop=-1;spacingLeft=3;spacingRight=3;rotatable=0;labelPosition=right;points=[];portConstraint=eastwest;" vertex="1" parent="kCNhBbxGzEiBGBO0i_PV-3">
                    <mxGeometry y="52" width="160" height="8" as="geometry"/>
                </mxCell>
                <mxCell id="kCNhBbxGzEiBGBO0i_PV-6" value="+ Fname: string" style="text;strokeColor=none;fillColor=none;align=left;verticalAlign=top;spacingLeft=4;spacingRight=4;overflow=hidden;rotatable=0;points=[[0,0.5],[1,0.5]];portConstraint=eastwest;" vertex="1" parent="kCNhBbxGzEiBGBO0i_PV-3">
                    <mxGeometry y="60" width="160" height="26" as="geometry"/>
                </mxCell>
                <mxCell id="kCNhBbxGzEiBGBO0i_PV-7" value="+ Lname: string" style="text;strokeColor=none;fillColor=none;align=left;verticalAlign=top;spacingLeft=4;spacingRight=4;overflow=hidden;rotatable=0;points=[[0,0.5],[1,0.5]];portConstraint=eastwest;" vertex="1" parent="kCNhBbxGzEiBGBO0i_PV-3">
                    <mxGeometry y="86" width="160" height="26" as="geometry"/>
                </mxCell>
                <mxCell id="kCNhBbxGzEiBGBO0i_PV-8" value="+ Adress: string" style="text;strokeColor=none;fillColor=none;align=left;verticalAlign=top;spacingLeft=4;spacingRight=4;overflow=hidden;rotatable=0;points=[[0,0.5],[1,0.5]];portConstraint=eastwest;" vertex="1" parent="kCNhBbxGzEiBGBO0i_PV-3">
                    <mxGeometry y="112" width="160" height="26" as="geometry"/>
                </mxCell>
                <mxCell id="kCNhBbxGzEiBGBO0i_PV-9" value="+ status: boolean" style="text;strokeColor=none;fillColor=none;align=left;verticalAlign=top;spacingLeft=4;spacingRight=4;overflow=hidden;rotatable=0;points=[[0,0.5],[1,0.5]];portConstraint=eastwest;" vertex="1" parent="kCNhBbxGzEiBGBO0i_PV-3">
                    <mxGeometry y="138" width="160" height="26" as="geometry"/>
                </mxCell>
                <mxCell id="kCNhBbxGzEiBGBO0i_PV-10" value="Doctors" style="swimlane;fontStyle=1;align=center;verticalAlign=top;childLayout=stackLayout;horizontal=1;startSize=26;horizontalStack=0;resizeParent=1;resizeParentMax=0;resizeLast=0;collapsible=1;marginBottom=0;" vertex="1" parent="kCNhBbxGzEiBGBO0i_PV-1">
                    <mxGeometry x="-170" y="480" width="160" height="190" as="geometry"/>
                </mxCell>
                <mxCell id="kCNhBbxGzEiBGBO0i_PV-11" value="+ Doctors_ID: int" style="text;strokeColor=none;fillColor=none;align=left;verticalAlign=top;spacingLeft=4;spacingRight=4;overflow=hidden;rotatable=0;points=[[0,0.5],[1,0.5]];portConstraint=eastwest;" vertex="1" parent="kCNhBbxGzEiBGBO0i_PV-10">
                    <mxGeometry y="26" width="160" height="26" as="geometry"/>
                </mxCell>
                <mxCell id="kCNhBbxGzEiBGBO0i_PV-12" value="" style="line;strokeWidth=1;fillColor=none;align=left;verticalAlign=middle;spacingTop=-1;spacingLeft=3;spacingRight=3;rotatable=0;labelPosition=right;points=[];portConstraint=eastwest;" vertex="1" parent="kCNhBbxGzEiBGBO0i_PV-10">
                    <mxGeometry y="52" width="160" height="8" as="geometry"/>
                </mxCell>
                <mxCell id="kCNhBbxGzEiBGBO0i_PV-13" value="+ Fname: string" style="text;strokeColor=none;fillColor=none;align=left;verticalAlign=top;spacingLeft=4;spacingRight=4;overflow=hidden;rotatable=0;points=[[0,0.5],[1,0.5]];portConstraint=eastwest;" vertex="1" parent="kCNhBbxGzEiBGBO0i_PV-10">
                    <mxGeometry y="60" width="160" height="26" as="geometry"/>
                </mxCell>
                <mxCell id="kCNhBbxGzEiBGBO0i_PV-14" value="+ Lname: string" style="text;strokeColor=none;fillColor=none;align=left;verticalAlign=top;spacingLeft=4;spacingRight=4;overflow=hidden;rotatable=0;points=[[0,0.5],[1,0.5]];portConstraint=eastwest;" vertex="1" parent="kCNhBbxGzEiBGBO0i_PV-10">
                    <mxGeometry y="86" width="160" height="26" as="geometry"/>
                </mxCell>
                <mxCell id="kCNhBbxGzEiBGBO0i_PV-15" value="+ speciality : string" style="text;strokeColor=none;fillColor=none;align=left;verticalAlign=top;spacingLeft=4;spacingRight=4;overflow=hidden;rotatable=0;points=[[0,0.5],[1,0.5]];portConstraint=eastwest;" vertex="1" parent="kCNhBbxGzEiBGBO0i_PV-10">
                    <mxGeometry y="112" width="160" height="26" as="geometry"/>
                </mxCell>
                <mxCell id="kCNhBbxGzEiBGBO0i_PV-16" value="+ code: int" style="text;strokeColor=none;fillColor=none;align=left;verticalAlign=top;spacingLeft=4;spacingRight=4;overflow=hidden;rotatable=0;points=[[0,0.5],[1,0.5]];portConstraint=eastwest;" vertex="1" parent="kCNhBbxGzEiBGBO0i_PV-10">
                    <mxGeometry y="138" width="160" height="26" as="geometry"/>
                </mxCell>
                <mxCell id="zB0IGgcStzx9mXlCGEbK-8" value="+ fk_Doctor_type_ID: int" style="text;strokeColor=none;fillColor=none;align=left;verticalAlign=top;spacingLeft=4;spacingRight=4;overflow=hidden;rotatable=0;points=[[0,0.5],[1,0.5]];portConstraint=eastwest;" vertex="1" parent="kCNhBbxGzEiBGBO0i_PV-10">
                    <mxGeometry y="164" width="160" height="26" as="geometry"/>
                </mxCell>
                <mxCell id="f_0P-Es61KN7fjjbTUSx-0" style="edgeStyle=none;html=1;entryX=0.831;entryY=1.038;entryDx=0;entryDy=0;entryPerimeter=0;startArrow=ERmany;startFill=0;endArrow=ERmany;endFill=0;exitX=0.25;exitY=0;exitDx=0;exitDy=0;" edge="1" parent="kCNhBbxGzEiBGBO0i_PV-1" source="kCNhBbxGzEiBGBO0i_PV-17" target="zB0IGgcStzx9mXlCGEbK-8">
                    <mxGeometry relative="1" as="geometry">
                        <Array as="points"/>
                    </mxGeometry>
                </mxCell>
                <mxCell id="kCNhBbxGzEiBGBO0i_PV-17" value="Units" style="swimlane;fontStyle=1;align=center;verticalAlign=top;childLayout=stackLayout;horizontal=1;startSize=26;horizontalStack=0;resizeParent=1;resizeParentMax=0;resizeLast=0;collapsible=1;marginBottom=0;" vertex="1" parent="kCNhBbxGzEiBGBO0i_PV-1">
                    <mxGeometry x="240" y="900" width="160" height="138" as="geometry"/>
                </mxCell>
                <mxCell id="kCNhBbxGzEiBGBO0i_PV-18" value="+ Units_ID: int" style="text;strokeColor=none;fillColor=none;align=left;verticalAlign=top;spacingLeft=4;spacingRight=4;overflow=hidden;rotatable=0;points=[[0,0.5],[1,0.5]];portConstraint=eastwest;" vertex="1" parent="kCNhBbxGzEiBGBO0i_PV-17">
                    <mxGeometry y="26" width="160" height="26" as="geometry"/>
                </mxCell>
                <mxCell id="kCNhBbxGzEiBGBO0i_PV-19" value="" style="line;strokeWidth=1;fillColor=none;align=left;verticalAlign=middle;spacingTop=-1;spacingLeft=3;spacingRight=3;rotatable=0;labelPosition=right;points=[];portConstraint=eastwest;" vertex="1" parent="kCNhBbxGzEiBGBO0i_PV-17">
                    <mxGeometry y="52" width="160" height="8" as="geometry"/>
                </mxCell>
                <mxCell id="kCNhBbxGzEiBGBO0i_PV-20" value="+ Name: string" style="text;strokeColor=none;fillColor=none;align=left;verticalAlign=top;spacingLeft=4;spacingRight=4;overflow=hidden;rotatable=0;points=[[0,0.5],[1,0.5]];portConstraint=eastwest;" vertex="1" parent="kCNhBbxGzEiBGBO0i_PV-17">
                    <mxGeometry y="60" width="160" height="26" as="geometry"/>
                </mxCell>
                <mxCell id="kCNhBbxGzEiBGBO0i_PV-21" value="+ floor: int" style="text;strokeColor=none;fillColor=none;align=left;verticalAlign=top;spacingLeft=4;spacingRight=4;overflow=hidden;rotatable=0;points=[[0,0.5],[1,0.5]];portConstraint=eastwest;" vertex="1" parent="kCNhBbxGzEiBGBO0i_PV-17">
                    <mxGeometry y="86" width="160" height="26" as="geometry"/>
                </mxCell>
                <mxCell id="f_0P-Es61KN7fjjbTUSx-1" value="+ Doctors_ID: int" style="text;strokeColor=none;fillColor=none;align=left;verticalAlign=top;spacingLeft=4;spacingRight=4;overflow=hidden;rotatable=0;points=[[0,0.5],[1,0.5]];portConstraint=eastwest;" vertex="1" parent="kCNhBbxGzEiBGBO0i_PV-17">
                    <mxGeometry y="112" width="160" height="26" as="geometry"/>
                </mxCell>
                <mxCell id="kCNhBbxGzEiBGBO0i_PV-22" value="Interventions" style="swimlane;fontStyle=1;align=center;verticalAlign=top;childLayout=stackLayout;horizontal=1;startSize=26;horizontalStack=0;resizeParent=1;resizeParentMax=0;resizeLast=0;collapsible=1;marginBottom=0;" vertex="1" parent="kCNhBbxGzEiBGBO0i_PV-1">
                    <mxGeometry x="210" y="273" width="230" height="138" as="geometry"/>
                </mxCell>
                <mxCell id="kCNhBbxGzEiBGBO0i_PV-23" value="+ Interventions_ID: int" style="text;strokeColor=none;fillColor=none;align=left;verticalAlign=top;spacingLeft=4;spacingRight=4;overflow=hidden;rotatable=0;points=[[0,0.5],[1,0.5]];portConstraint=eastwest;" vertex="1" parent="kCNhBbxGzEiBGBO0i_PV-22">
                    <mxGeometry y="26" width="230" height="26" as="geometry"/>
                </mxCell>
                <mxCell id="kCNhBbxGzEiBGBO0i_PV-24" value="" style="line;strokeWidth=1;fillColor=none;align=left;verticalAlign=middle;spacingTop=-1;spacingLeft=3;spacingRight=3;rotatable=0;labelPosition=right;points=[];portConstraint=eastwest;" vertex="1" parent="kCNhBbxGzEiBGBO0i_PV-22">
                    <mxGeometry y="52" width="230" height="8" as="geometry"/>
                </mxCell>
                <mxCell id="kCNhBbxGzEiBGBO0i_PV-25" value="+ prescribed_treatment: string" style="text;strokeColor=none;fillColor=none;align=left;verticalAlign=top;spacingLeft=4;spacingRight=4;overflow=hidden;rotatable=0;points=[[0,0.5],[1,0.5]];portConstraint=eastwest;" vertex="1" parent="kCNhBbxGzEiBGBO0i_PV-22">
                    <mxGeometry y="60" width="230" height="26" as="geometry"/>
                </mxCell>
                <mxCell id="kCNhBbxGzEiBGBO0i_PV-26" value="+ observed_symptom: string" style="text;strokeColor=none;fillColor=none;align=left;verticalAlign=top;spacingLeft=4;spacingRight=4;overflow=hidden;rotatable=0;points=[[0,0.5],[1,0.5]];portConstraint=eastwest;" vertex="1" parent="kCNhBbxGzEiBGBO0i_PV-22">
                    <mxGeometry y="86" width="230" height="26" as="geometry"/>
                </mxCell>
                <mxCell id="kCNhBbxGzEiBGBO0i_PV-27" value="+ setting_the_date: date" style="text;strokeColor=none;fillColor=none;align=left;verticalAlign=top;spacingLeft=4;spacingRight=4;overflow=hidden;rotatable=0;points=[[0,0.5],[1,0.5]];portConstraint=eastwest;" vertex="1" parent="kCNhBbxGzEiBGBO0i_PV-22">
                    <mxGeometry y="112" width="230" height="26" as="geometry"/>
                </mxCell>
                <mxCell id="kCNhBbxGzEiBGBO0i_PV-28" style="edgeStyle=none;html=1;entryX=0.463;entryY=-0.045;entryDx=0;entryDy=0;entryPerimeter=0;startArrow=ERmany;startFill=0;endArrow=ERone;endFill=0;" edge="1" parent="kCNhBbxGzEiBGBO0i_PV-1" source="kCNhBbxGzEiBGBO0i_PV-29" target="kCNhBbxGzEiBGBO0i_PV-17">
                    <mxGeometry relative="1" as="geometry"/>
                </mxCell>
                <mxCell id="kCNhBbxGzEiBGBO0i_PV-29" value="Admission" style="swimlane;fontStyle=1;align=center;verticalAlign=top;childLayout=stackLayout;horizontal=1;startSize=26;horizontalStack=0;resizeParent=1;resizeParentMax=0;resizeLast=0;collapsible=1;marginBottom=0;" vertex="1" parent="kCNhBbxGzEiBGBO0i_PV-1">
                    <mxGeometry x="520" y="585" width="266" height="138" as="geometry"/>
                </mxCell>
                <mxCell id="kCNhBbxGzEiBGBO0i_PV-30" value="+ Admission_ID: int" style="text;strokeColor=none;fillColor=none;align=left;verticalAlign=top;spacingLeft=4;spacingRight=4;overflow=hidden;rotatable=0;points=[[0,0.5],[1,0.5]];portConstraint=eastwest;" vertex="1" parent="kCNhBbxGzEiBGBO0i_PV-29">
                    <mxGeometry y="26" width="266" height="26" as="geometry"/>
                </mxCell>
                <mxCell id="kCNhBbxGzEiBGBO0i_PV-31" value="" style="line;strokeWidth=1;fillColor=none;align=left;verticalAlign=middle;spacingTop=-1;spacingLeft=3;spacingRight=3;rotatable=0;labelPosition=right;points=[];portConstraint=eastwest;" vertex="1" parent="kCNhBbxGzEiBGBO0i_PV-29">
                    <mxGeometry y="52" width="266" height="8" as="geometry"/>
                </mxCell>
                <mxCell id="kCNhBbxGzEiBGBO0i_PV-32" value="+ date_of_admission: date" style="text;strokeColor=none;fillColor=none;align=left;verticalAlign=top;spacingLeft=4;spacingRight=4;overflow=hidden;rotatable=0;points=[[0,0.5],[1,0.5]];portConstraint=eastwest;" vertex="1" parent="kCNhBbxGzEiBGBO0i_PV-29">
                    <mxGeometry y="60" width="266" height="26" as="geometry"/>
                </mxCell>
                <mxCell id="kCNhBbxGzEiBGBO0i_PV-33" value="+ social_security_number: int" style="text;strokeColor=none;fillColor=none;align=left;verticalAlign=top;spacingLeft=4;spacingRight=4;overflow=hidden;rotatable=0;points=[[0,0.5],[1,0.5]];portConstraint=eastwest;" vertex="1" parent="kCNhBbxGzEiBGBO0i_PV-29">
                    <mxGeometry y="86" width="266" height="26" as="geometry"/>
                </mxCell>
                <mxCell id="kCNhBbxGzEiBGBO0i_PV-34" value="+ age : int" style="text;strokeColor=none;fillColor=none;align=left;verticalAlign=top;spacingLeft=4;spacingRight=4;overflow=hidden;rotatable=0;points=[[0,0.5],[1,0.5]];portConstraint=eastwest;" vertex="1" parent="kCNhBbxGzEiBGBO0i_PV-29">
                    <mxGeometry y="112" width="266" height="26" as="geometry"/>
                </mxCell>
                <mxCell id="kCNhBbxGzEiBGBO0i_PV-35" value="" style="edgeStyle=entityRelationEdgeStyle;fontSize=12;html=1;endArrow=ERmany;endFill=0;entryX=-0.017;entryY=0.808;entryDx=0;entryDy=0;entryPerimeter=0;exitX=1;exitY=0.5;exitDx=0;exitDy=0;startArrow=ERmany;startFill=0;" edge="1" parent="kCNhBbxGzEiBGBO0i_PV-1" source="kCNhBbxGzEiBGBO0i_PV-15" target="kCNhBbxGzEiBGBO0i_PV-25">
                    <mxGeometry width="100" height="100" relative="1" as="geometry">
                        <mxPoint x="70" y="411" as="sourcePoint"/>
                        <mxPoint x="170" y="311" as="targetPoint"/>
                    </mxGeometry>
                </mxCell>
                <mxCell id="kCNhBbxGzEiBGBO0i_PV-36" value="" style="edgeStyle=entityRelationEdgeStyle;fontSize=12;html=1;endArrow=ERone;endFill=0;entryX=-0.012;entryY=0.154;entryDx=0;entryDy=0;entryPerimeter=0;exitX=1;exitY=0.5;exitDx=0;exitDy=0;startArrow=ERmany;startFill=0;" edge="1" parent="kCNhBbxGzEiBGBO0i_PV-1" source="kCNhBbxGzEiBGBO0i_PV-26" target="kCNhBbxGzEiBGBO0i_PV-7">
                    <mxGeometry width="100" height="100" relative="1" as="geometry">
                        <mxPoint x="460" y="420" as="sourcePoint"/>
                        <mxPoint x="560" y="320" as="targetPoint"/>
                    </mxGeometry>
                </mxCell>
                <mxCell id="zB0IGgcStzx9mXlCGEbK-4" value="DoctorType" style="swimlane;fontStyle=1;align=center;verticalAlign=top;childLayout=stackLayout;horizontal=1;startSize=26;horizontalStack=0;resizeParent=1;resizeParentMax=0;resizeLast=0;collapsible=1;marginBottom=0;" vertex="1" parent="kCNhBbxGzEiBGBO0i_PV-1">
                    <mxGeometry x="-450" y="520" width="160" height="86" as="geometry"/>
                </mxCell>
                <mxCell id="zB0IGgcStzx9mXlCGEbK-5" value="+ Doctor_Type_ID: int" style="text;strokeColor=none;fillColor=none;align=left;verticalAlign=top;spacingLeft=4;spacingRight=4;overflow=hidden;rotatable=0;points=[[0,0.5],[1,0.5]];portConstraint=eastwest;" vertex="1" parent="zB0IGgcStzx9mXlCGEbK-4">
                    <mxGeometry y="26" width="160" height="26" as="geometry"/>
                </mxCell>
                <mxCell id="zB0IGgcStzx9mXlCGEbK-6" value="" style="line;strokeWidth=1;fillColor=none;align=left;verticalAlign=middle;spacingTop=-1;spacingLeft=3;spacingRight=3;rotatable=0;labelPosition=right;points=[];portConstraint=eastwest;" vertex="1" parent="zB0IGgcStzx9mXlCGEbK-4">
                    <mxGeometry y="52" width="160" height="8" as="geometry"/>
                </mxCell>
                <mxCell id="zB0IGgcStzx9mXlCGEbK-7" value="+ type: string" style="text;strokeColor=none;fillColor=none;align=left;verticalAlign=top;spacingLeft=4;spacingRight=4;overflow=hidden;rotatable=0;points=[[0,0.5],[1,0.5]];portConstraint=eastwest;" vertex="1" parent="zB0IGgcStzx9mXlCGEbK-4">
                    <mxGeometry y="60" width="160" height="26" as="geometry"/>
                </mxCell>
                <mxCell id="zB0IGgcStzx9mXlCGEbK-9" style="edgeStyle=none;html=1;entryX=1;entryY=1.231;entryDx=0;entryDy=0;entryPerimeter=0;startArrow=ERmany;startFill=0;endArrow=ERmany;endFill=0;" edge="1" parent="kCNhBbxGzEiBGBO0i_PV-1" source="kCNhBbxGzEiBGBO0i_PV-14" target="zB0IGgcStzx9mXlCGEbK-5">
                    <mxGeometry relative="1" as="geometry"/>
                </mxCell>
            </root>
        </mxGraphModel>
    </diagram>
</mxfile>